<svg xmlns="http://www.w3.org/2000/svg" xmlns:xlink="http://www.w3.org/1999/xlink" width="117.336" height="149" viewBox="0 0 117.336 149">
  <defs>
    <linearGradient id="linear-gradient" x1="-1.144" y1="1.045" x2="-0.605" y2="-0.033" gradientUnits="objectBoundingBox">
      <stop offset="0" stop-color="#4dc0b1"/>
      <stop offset="1" stop-color="#807d7d"/>
    </linearGradient>
  </defs>
  <g id="Group_1540" data-name="Group 1540" transform="translate(-2063.908 -225.952)">
    <path id="Path_128" data-name="Path 128" d="M2140.993,281.353a15.138,15.138,0,0,0,0-5.648l3.463.609.617,1.176-1.361,5.006Z" transform="translate(-59.639 -38.493)" fill="#fc7575"/>
    <g id="Group_1523" data-name="Group 1523" transform="translate(2129.29 237.77)">
      <path id="Path_129" data-name="Path 129" d="M2371.565,280.107s.21.009.21.4a39.239,39.239,0,0,1-1.9,4.028v-.87S2370.952,280.354,2371.565,280.107Z" transform="translate(-2366.009 -279.669)" fill="#fd5e5a"/>
      <path id="Path_130" data-name="Path 130" d="M2357.7,282.687c0-.329.638-.535.638-.975s-.3-1.016-.588-.384c-.239.529-.451.38-.655.677.2-1.035.938-3.722.739-3.826-.437-.229-1.982,4.6-2.15,5.016a11.9,11.9,0,0,0-.347,2.9c0,.989-2.542,4.644-2.542,4.644l3.7.775s.806-2.582,1.172-4.4C2359.194,285.626,2357.7,283.016,2357.7,282.687Z" transform="translate(-2352.797 -278.171)" fill="#fc7575"/>
    </g>
    <g id="Group_1524" data-name="Group 1524" transform="translate(2134.939 238.906)">
      <path id="Path_131" data-name="Path 131" d="M2379.874,289.326s-.172.009-.172.4,1.555,4.027,1.555,4.027v-.87S2380.375,289.573,2379.874,289.326Z" transform="translate(-2379.262 -287.937)" fill="#fd5e5a"/>
      <path id="Path_132" data-name="Path 132" d="M2378.088,287.706c0-.329-.327-.719-.327-1.158s.332-1.027.566-.395c.2.529.466,1.919.633,2.217a41.715,41.715,0,0,1-.6-5.172c.357-.229,1.62,4.6,1.758,5.016a14.437,14.437,0,0,1,.283,2.9c0,.989,2.078,4.644,2.078,4.644l-3.021.775s-.659-2.582-.958-4.4C2377.246,290.645,2378.088,288.035,2378.088,287.706Z" transform="translate(-2377.761 -283.19)" fill="#fc7575"/>
    </g>
    <path id="Path_133" data-name="Path 133" d="M2071.957,435.19c13.213-10.789-9.668-28.2-4.6-45.422s21.785.484,30.781,8.968,19.538-6.695,26.527-7.1,3.056,6.227,6.208,14.82,26.387,1.457,35.7,9.757-5.525,25.964-6.774,36.5,14.794,22.451,4.515,38.084l-51.065-.309c-5.138-1.617-8.491-2.9-8.491-2.9C2056.951,466.438,2058.743,445.979,2071.957,435.19Z" transform="translate(0 -121.122)" fill="url(#linear-gradient)"/>
    <path id="Path_134" data-name="Path 134" d="M2205.172,858.514c0,1.752-36.634,4.333-63.323,1.39-27.013-2.979-42.05-.505-42.05-2.257s24.813-3.154,51.99-3.154S2205.172,856.762,2205.172,858.514Z" transform="translate(-27.768 -486.289)" fill="#c7b299"/>
    <path id="Path_135" data-name="Path 135" d="M2461.45,501.441l-4.329.636,2.434-11.229,2.352,1.209Z" transform="translate(-304.221 -204.945)"/>
    <path id="Path_136" data-name="Path 136" d="M2391.668,345.355a61.116,61.116,0,0,1-5.033-9.233c-1.345.547-2.122.523-3.5,1.1l4.789,11.069,13.954,12.758,4.082-8.576S2392.923,347.268,2391.668,345.355Z" transform="translate(-246.982 -85.236)" fill="#4dc0b1"/>
    <path id="Path_137" data-name="Path 137" d="M2461.524,643.138s-2.4,9.893-1.464,12.411,2.432,4.367,2.483,8.111-2.735,20.361-2.306,22.745a6.519,6.519,0,0,1-.018,2.978c-.342.565-1.933,4.578-2.365,4.684a12.225,12.225,0,0,1-2.342-.233,5.358,5.358,0,0,1,.555-1.244,40.886,40.886,0,0,0,1.231-9.337c-.041-3.7-1.261-20.492-2.166-24.164s-1.246-3.605-1.28-6.162a51.875,51.875,0,0,1,.965-7.613Z" transform="translate(-301.692 -322.768)" fill="#fd5e5a"/>
    <path id="Path_138" data-name="Path 138" d="M2460.061,655.549c-.94-2.517,1.464-12.41,1.464-12.41l-6.705,2.175a51.877,51.877,0,0,0-.965,7.613,11,11,0,0,0,.672,3.9c1.375-.045,3.505-.143,5.917-.347C2460.309,656.179,2460.18,655.87,2460.061,655.549Z" transform="translate(-301.692 -322.769)" fill="#e85553"/>
    <path id="Path_139" data-name="Path 139" d="M2499.668,644.394s-3.071,9.707-2.3,12.282,2.13,4.522,1.927,8.261-4.459,22.585-4.459,22.585c.3,1.731.367,1.976.071,2.4-.38.54-1.827,4.809-2.266,4.886s-2.251.387-2.251.387a1.683,1.683,0,0,1,.276-1.484,4.8,4.8,0,0,0,.745-1.833,66.715,66.715,0,0,0,.673-7.789c.21-3.695.781-20.486.128-24.211s-1-3.682-.858-6.235a51.929,51.929,0,0,1,1.48-7.53Z" transform="translate(-329.905 -323.74)" fill="#fc7575"/>
    <path id="Path_140" data-name="Path 140" d="M2500.786,656.677c-.767-2.575,2.3-12.282,2.3-12.282l-6.838,1.715a51.9,51.9,0,0,0-1.48,7.53,11,11,0,0,0,.405,3.94c1.374.048,3.507.1,5.927.055C2500.991,657.322,2500.884,657,2500.786,656.677Z" transform="translate(-333.327 -323.74)" fill="#e85553"/>
    <path id="Path_141" data-name="Path 141" d="M2450.7,517.693s-.824,12.7-1.447,15.724-4.181,24.465-4.181,24.465,15.854,1.334,19.679,0c0,0,.427-27.512-.474-31.049s-4.839-9.971-4.839-9.971Z" transform="translate(-294.896 -225.071)"/>
    <path id="Path_142" data-name="Path 142" d="M2469.543,517.693s-.042.651-.115,1.693a14.006,14.006,0,0,1,3.5,5.165c.75,2.355,6.53,2.008,9.984,1.577a58.693,58.693,0,0,0-4.632-9.266Z" transform="translate(-313.743 -225.071)" fill="#4dc0b1" opacity="0.53"/>
    <path id="Path_143" data-name="Path 143" d="M2483.888,400.788l-4.809-.348-1.7,3.334,6.843.713Z" transform="translate(-319.892 -134.998)" fill="#230044"/>
    <path id="Path_144" data-name="Path 144" d="M2465.637,404.141s2.191-1.686,9.612-.011c.2.046.387,8.1.387,8.1s-3.443,13.478-2.788,16.841c0,0-3.936,3.322-9.808.43,0,0,.763-10.584.229-12.942s-1.6-4.5-.087-6.942A27.723,27.723,0,0,0,2465.637,404.141Z" transform="translate(-308.309 -137.279)" fill="#fff7cf"/>
    <path id="Path_145" data-name="Path 145" d="M2491.8,401.979,2487.6,414v19.95l9.276.448-3.234-4.23-1.1-5.306,2.581-13.723-.238-8.085Z" transform="translate(-327.804 -136.189)" fill="#4dc0b1"/>
    <path id="Path_146" data-name="Path 146" d="M2463.409,400.44l-3.456,11.472-.9,20.219h-1.936l2.079-10.683-1.219-12.045,3.478-7.779Z" transform="translate(-304.221 -134.998)" fill="#4dc0b1"/>
    <path id="Path_147" data-name="Path 147" d="M2491.8,401.979,2487.6,414l5.364-6.991.894-4.71Z" transform="translate(-327.804 -136.189)"/>
    <path id="Path_148" data-name="Path 148" d="M2473.089,400.44l-3.456,11.472.312-8.206,1.44-2.917Z" transform="translate(-313.902 -134.998)"/>
    <path id="Path_149" data-name="Path 149" d="M2520.49,526.359c.121-.12,1.173-1.67,1.4-1.445s-.932,1.654-.932,1.654,1.341-1.357,1.606-1.092-1.792,2.1-2.009,2.1S2520.49,526.359,2520.49,526.359Z" transform="translate(-353.207 -231.284)" fill="#fd5e5a"/>
    <path id="Path_150" data-name="Path 150" d="M2511.607,516.668s-.567.866-.15,1.283.194.851.478,1.134,1.552.328,1.552.328a8.717,8.717,0,0,1,.716-2.626,9.817,9.817,0,0,1,1.013-1.44,17.2,17.2,0,0,0-1.751-1C2512.417,515.707,2511.626,516.634,2511.607,516.668Z" transform="translate(-346.141 -223.124)" fill="#fc7575"/>
    <path id="Path_151" data-name="Path 151" d="M2518.029,406.716s-.736,5.849,0,7.461c.716,1.569,4.9,3.378,5.622,6.555.537,2.374-2.959,7.383-5.236,10.341a18.233,18.233,0,0,0,2.054,1.882c2.318-2.95,7.371-9.9,7.517-11.526C2528.166,419.427,2521.142,406.507,2518.029,406.716Z" transform="translate(-351.091 -139.851)" fill="#4dc0b1"/>
    <path id="Path_152" data-name="Path 152" d="M2517.683,406.724c-.111,1.364-.2,2.67-.224,4.062-.023,2.457.125,3.232.667,3.848,1.259,1.459,4.628,3.242,5.179,6.106-.784-2.84-4.043-4.42-5.359-5.953a3.065,3.065,0,0,1-.654-1.959A30.5,30.5,0,0,1,2517.683,406.724Z" transform="translate(-350.745 -139.86)" fill="#53587d"/>
    <g id="Group_1525" data-name="Group 1525" transform="translate(2159.698 363.782)">
      <path id="Path_153" data-name="Path 153" d="M2508.643,847.644l-.068,4.249.473.014.609-4.844Z" transform="translate(-2503.727 -844.323)" fill="#1d1c22"/>
      <path id="Path_154" data-name="Path 154" d="M2492.385,834.956c-.4,2.376-1.778,6.237-2.651,6.855l-1.519-.669c-.754,1.289-1.608,1.949-.6,1.952,1.3,0,3.324.09,3.577-.442.435-.918.683-4.4,1.572-4.393l-.29,4.281.472.014s.718-5.894.567-6.483A1.7,1.7,0,0,0,2492.385,834.956Z" transform="translate(-2487.156 -834.956)" fill="#3a3745"/>
    </g>
    <g id="Group_1526" data-name="Group 1526" transform="translate(2153.316 363.636)">
      <path id="Path_155" data-name="Path 155" d="M2480.445,847l-.068,4.249.473.014.609-4.844Z" transform="translate(-2475.53 -843.676)" fill="#1d1c22"/>
      <path id="Path_156" data-name="Path 156" d="M2464.188,834.309c-.4,2.376-1.778,6.237-2.651,6.855l-1.519-.67c-.754,1.289-1.608,1.949-.6,1.952,1.3,0,3.324.09,3.577-.442.436-.918.684-4.4,1.572-4.393l-.29,4.282.471.014s.719-5.894.567-6.483A1.7,1.7,0,0,0,2464.188,834.309Z" transform="translate(-2458.959 -834.309)" fill="#3a3745"/>
    </g>
    <g id="Group_1529" data-name="Group 1529" transform="translate(2156.506 248.334)">
      <path id="Path_157" data-name="Path 157" d="M2485.184,326.222c.3.277,3.153-.141,5.571,2.461,3.2,3.44,2.82,11.479,2.82,11.479a41.27,41.27,0,0,1-4.738.826,40.339,40.339,0,0,1-5.528-.551c-1.487-.219-2.29-8.586-1.288-10.8A8.242,8.242,0,0,1,2485.184,326.222Z" transform="translate(-2479.646 -325.911)"/>
      <path id="Path_158" data-name="Path 158" d="M2478.592,326.208s-3.187-.183-3.977,1.875-.456,8.641-1.56,9.324a3.3,3.3,0,0,0,1.535.495s.461.812-.647,2.01a9.073,9.073,0,0,0,2.773.51c.1,0,1.131.29,1.226-.584.112-1.035-.714-3.326-.607-4.328C2477.788,331.27,2478.592,326.208,2478.592,326.208Z" transform="translate(-2473.055 -325.896)"/>
      <path id="Path_159" data-name="Path 159" d="M2484.218,327.9a3.052,3.052,0,0,0-.837.1s-2.732,1.144-2.856,3.155.155,2.792-.065,4.093c-.345,2.046.949,5.85,3.177,5.8.051-1.078-.719-3.254-.615-4.223C2483.4,333.274,2484.024,329.151,2484.218,327.9Z" transform="translate(-2478.741 -327.208)" fill="#341930"/>
      <path id="Path_160" data-name="Path 160" d="M2484.613,376.443a26.511,26.511,0,0,1-1.045,4.905c-.533,1.024-1.383,5.493-.636,5.493s4.219-3.477,4.443-4.885,1.312-7.219,1.312-7.219Z" transform="translate(-2480.469 -363.446)" fill="#fc7575"/>
      <path id="Path_161" data-name="Path 161" d="M2490.795,376.008c-.029.014-.115.818-.119.849-.123.865-.16.811-.123.927.289.9,1.457,1.472,3.178-.067a8.534,8.534,0,0,0,.631-.628c.242-1.309.437-2.352.437-2.352S2490.83,375.994,2490.795,376.008Z" transform="translate(-2486.582 -363.446)" fill="#fd5e5a"/>
      <path id="Path_162" data-name="Path 162" d="M2485.2,327.951s-2.583,1.094-2.7,3.019.147,2.673-.06,3.919.329,4.576,2.283,5.417,4.554-2.383,5.01-3.83a11.6,11.6,0,0,0,.12-5.784C2489.357,328.428,2486.633,327.553,2485.2,327.951Z" transform="translate(-2480.283 -327.176)" fill="#fc7575"/>
      <path id="Path_163" data-name="Path 163" d="M2488.529,338.741a7.048,7.048,0,0,0,1.442-2.265,11.6,11.6,0,0,0,.12-5.784c-.494-2.264-3.218-3.139-4.654-2.741,0,0-2.583,1.094-2.7,3.019-.039.645-.035,1.158-.021,1.6h0l2.431-.083s-.15-2.064.333-2.587l.081,2.48,1.666.012a4.67,4.67,0,0,0,.572-2.038,5.554,5.554,0,0,1-.284,2.042s1.358-.069,1.385.634c.023.575-.178,4.18-.28,5.133A5.394,5.394,0,0,1,2488.529,338.741Z" transform="translate(-2480.523 -327.176)" fill="#fd5e5a"/>
      <path id="Path_164" data-name="Path 164" d="M2492.018,328.959c-1.951-4.017-5.486-4.608-7.448-3.8a4.108,4.108,0,0,0-3.3,1.641,3.541,3.541,0,0,0-.193,3.207l2.321-.025s.091-2.381.574-2.9l.113,2.877,1.646-.065a8.163,8.163,0,0,0,.5-2.405,5.459,5.459,0,0,1-.018,2.386s1.173.13,1.2.833c.022.575-.178,4.179-.28,5.133a4.9,4.9,0,0,1-1.2,2.8s3.869.681,4.667-.183l-.4,1.206a13.878,13.878,0,0,0,2.767-.563C2493.556,338.786,2493.14,331.272,2492.018,328.959Z" transform="translate(-2479.032 -324.846)"/>
      <path id="Path_165" data-name="Path 165" d="M2481.27,327.862a3.541,3.541,0,0,0-.193,3.207l2.321-.025s.091-2.381.574-2.9l.113,2.877,1.646-.065a8.163,8.163,0,0,0,.5-2.405,5.454,5.454,0,0,1-.019,2.386s1.174.13,1.2.834c.022.575-.178,4.179-.28,5.133q-.017.155-.041.3h0c2.165-2.165,1.792-7.356,1.214-9.19s-3.735-1.79-3.735-1.79A4.108,4.108,0,0,0,2481.27,327.862Z" transform="translate(-2479.032 -325.91)"/>
      <path id="Path_166" data-name="Path 166" d="M2497.547,326.858c2.925-.158,4.993.5,6.024,3.259,1,2.65,1.992,6.766,1.064,9.444l-.957-.366c.888-2.134.354-5.694-.246-7.94C2502.683,328.442,2501.711,326.889,2497.547,326.858Z" transform="translate(-2492.004 -326.386)"/>
      <g id="Group_1527" data-name="Group 1527" transform="translate(2.249 0.607)">
        <path id="Path_167" data-name="Path 167" d="M2485.778,327.61a3.921,3.921,0,0,0-2.542,1.737,4.454,4.454,0,0,0-.036,2.792l.248,0C2482.977,330.177,2482.737,328.637,2485.778,327.61Z" transform="translate(-2482.99 -327.591)"/>
        <path id="Path_168" data-name="Path 168" d="M2489.711,327.936c-2.06.879-1.98,2.473-1.476,4.442l.245,0C2487.832,330.442,2487.675,328.873,2489.711,327.936Z" transform="translate(-2486.816 -327.843)"/>
        <path id="Path_169" data-name="Path 169" d="M2497.428,327.527a6.562,6.562,0,0,1,.12,4.478l.237-.009A6.789,6.789,0,0,0,2497.428,327.527Z" transform="translate(-2494.161 -327.527)"/>
      </g>
      <path id="Path_170" data-name="Path 170" d="M2490.108,359.767a2.668,2.668,0,0,0,.334-1.734,5.463,5.463,0,0,1-.507,1.679l-.053.065a1.167,1.167,0,0,0,.791.349A1.766,1.766,0,0,1,2490.108,359.767Z" transform="translate(-2486.074 -350.522)" fill="#452140"/>
      <path id="Path_171" data-name="Path 171" d="M2493.813,379.629h0Z" transform="translate(-2489.114 -367.23)" fill="#fff"/>
      <g id="Group_1528" data-name="Group 1528" transform="translate(3.596 10.112)">
        <path id="Path_172" data-name="Path 172" d="M2491.375,369.524a7.519,7.519,0,0,1-2.43.528,2.6,2.6,0,0,0,.3.406,7.46,7.46,0,0,0,1.937-.415A3.2,3.2,0,0,0,2491.375,369.524Z" transform="translate(-2488.945 -369.524)" fill="#fff"/>
        <path id="Path_173" data-name="Path 173" d="M2492.2,371.815a7.458,7.458,0,0,1-1.937.415C2490.985,373.037,2491.717,372.809,2492.2,371.815Z" transform="translate(-2489.961 -371.297)" fill="#2e162b"/>
      </g>
      <path id="Path_174" data-name="Path 174" d="M2495.522,349.918a1.318,1.318,0,0,1,.66-.334,3.1,3.1,0,0,1,1.393.418,8.048,8.048,0,0,0-1.21-.241,1.921,1.921,0,0,0-.677.267Z" transform="translate(-2490.437 -343.976)" fill="#5c2c55"/>
      <path id="Path_175" data-name="Path 175" d="M2484.046,350.393a1.206,1.206,0,0,0-.56-.318,2.693,2.693,0,0,0-1.216.259,7.114,7.114,0,0,1,1.053-.124,1.77,1.77,0,0,1,.578.263Z" transform="translate(-2480.184 -344.35)" fill="#5c2c55"/>
      <path id="Path_176" data-name="Path 176" d="M2495.331,355.453a1.217,1.217,0,0,1,1-.281c.417.082.652.423.913.475-.391.1-.524-.342-1.423-.3A1.64,1.64,0,0,0,2495.331,355.453Z" transform="translate(-2490.29 -348.297)" fill="#2e162b"/>
      <path id="Path_177" data-name="Path 177" d="M2483.211,355.832a1.218,1.218,0,0,0-.969-.361c-.423.048-.685.368-.948.4.382.127.55-.3,1.442-.179A1.648,1.648,0,0,1,2483.211,355.832Z" transform="translate(-2479.429 -348.536)" fill="#2e162b"/>
    </g>
    <path id="Path_178" data-name="Path 178" d="M2117,303.6c-.824,4.451-1.333,14.152-1.333,14.152l7.434,5.6,1.763,12.738s-16.867-12.743-18.024-19.135c-.119-.659,2.665-12.385,6.759-15.53A7.491,7.491,0,0,0,2117,303.6Z" transform="translate(-33.21 -58.399)" fill="#4dc0b1"/>
    <path id="Path_179" data-name="Path 179" d="M2136.981,291.876a14.156,14.156,0,0,0-1.446,2.571,4.369,4.369,0,0,0,3.657,1.78c.61-1.085.839-1.711,1.34-2.617C2139.452,293.149,2137.855,292.868,2136.981,291.876Z" transform="translate(-55.417 -51.004)" fill="#decfed"/>
    <path id="Path_180" data-name="Path 180" d="M2352.042,322.849l-1.355,2.578c1.354.953,2.685,1.261,4.095,2.192l.594-2.488Z" transform="translate(-221.875 -74.967)" fill="#81669b"/>
    <path id="Path_181" data-name="Path 181" d="M2274.813,343.244l-12.943,4.287-.763,12.295,18.38-10.606s6.655-11.939,5.989-14c-.52-1.608-2.941-3.016-4.478-2.4C2278.865,333.684,2274.813,343.244,2274.813,343.244Z" transform="translate(-152.569 -82.57)" fill="#4dc0b1"/>
    <path id="Path_182" data-name="Path 182" d="M2198.411,391.455l-4.83-1.888-9.446.569-5.435,1.411s2.322,16.122,2.864,21.814.541,10.246.541,10.246l1.079,3.7c6.089.52,10.717.082,16.86.822.067-3.265.087-3.154.087-3.154Z" transform="translate(-88.812 -126.586)" fill="#4dc0b1"/>
    <path id="Path_183" data-name="Path 183" d="M2182.1,430.378l1.079,3.7c4.187.357,7.682.262,11.454.408-4.933-1.063-6.6-4.313-7.076-7.116a39.378,39.378,0,0,0-2.64-9c-3.095-7.173-6.222-20.056-6.222-20.056s2.322,16.122,2.864,21.814S2182.1,430.378,2182.1,430.378Z" transform="translate(-88.812 -133.355)" fill="#614d74" opacity="0.36"/>
    <path id="Path_184" data-name="Path 184" d="M2216.762,382.018l-.01,3.43-6.784-.05-.059-3.905Z" transform="translate(-112.958 -120.339)" fill="#81669b"/>
    <path id="Path_185" data-name="Path 185" d="M2174.594,849.988l8.763.193-5.76-2.45-.262-2.2c-.888,0-1.1.6-2,.6C2175.083,847.537,2174.594,849.988,2174.594,849.988Z" transform="translate(-85.635 -479.358)" fill="#4dc0b1"/>
    <path id="Path_186" data-name="Path 186" d="M2229.694,845.912l8.763.193-5.761-2.45-.262-2.2c-.887,0-1.1.6-2,.6C2230.184,843.461,2229.694,845.912,2229.694,845.912Z" transform="translate(-128.266 -476.204)" fill="#4dc0b1"/>
    <path id="Path_187" data-name="Path 187" d="M2175.646,589.906s-1.119,9.26-1.7,15.939-.518,16.787-.518,16.787l4.559.28s1.823-21.848,4.1-28.11l6.009-26.356-1.629,53.6,4.788-.15s4.533-56.069,4.711-64.751c-6.143-.74-10.77-.3-16.859-.823Z" transform="translate(-84.736 -255.598)"/>
    <g id="Group_1531" data-name="Group 1531" transform="translate(2093.888 242.859)">
      <g id="Group_1530" data-name="Group 1530">
        <path id="Path_188" data-name="Path 188" d="M2209.153,328.361c-.161-.1-2.157-5.07-2.157-5.07s-1.333-3.73-.472-4.361,2.906-2.821,4.7-2.86a6.805,6.805,0,0,1,3.155.6c.161.1,1.322,2.063,1.322,2.063s-.541-.661-.819,1.79S2209.153,328.361,2209.153,328.361Z" transform="translate(-2204.004 -312.58)" fill="#381a3f"/>
        <path id="Path_189" data-name="Path 189" d="M2219.579,356.294c-.213.635-.121,5.164-.289,6.3s-5.306,2.871-5.407-1.225.3-8.912.3-8.912Z" transform="translate(-2209.908 -340.738)" fill="#fc7575"/>
        <path id="Path_190" data-name="Path 190" d="M2220.021,356.294h0l-1.79-1.272-3.6-2.56a.064.064,0,0,1,0,.007v.007c0,.017,0,.049-.008.095-.012.149-.035.447-.063.858v0c-.006.083-.012.171-.018.263,0,.006,0,.012,0,.018-.02.3-.041.64-.063,1.017,0,.021,0,.042,0,.063,0,.089-.01.18-.015.273v0c0,.048-.006.1-.008.146,0,0,0,.01,0,.016l0,.055v.021c0,.032,0,.065-.005.1.669,2.2,3.2,4.579,5.388,4.863q.007-.227.024-.458A25.752,25.752,0,0,1,2220.021,356.294Z" transform="translate(-2210.35 -340.738)" fill="#fd5e5a"/>
        <path id="Path_191" data-name="Path 191" d="M2212.924,328.545a7.9,7.9,0,0,0,.875,6.9c1.57,2.265,3.736,3.433,5.288,2.291s2-8.311.875-10.155S2213.927,326.05,2212.924,328.545Z" transform="translate(-2208.848 -320.573)" fill="#fc7575"/>
        <path id="Path_192" data-name="Path 192" d="M2200.455,315.51s-.349-2.344-1.249-2.916-1.306-.92-1.468-1.747-1.759-1.97-1.269-3.332,1.435-1.41,2.629-3.777,2.484-3.677,5.269-2.815,3.172,2.561,3.172,2.561a2.205,2.205,0,0,1,1.98,1.257c1.735,2.756-4.2,4.41-6.481,2.127-1.106-1.107-2.553-.076-3.1,1.569S2201.754,312.666,2200.455,315.51Z" transform="translate(-2196.376 -300.658)"/>
        <path id="Path_193" data-name="Path 193" d="M2210.834,343.374s-.982-1.677-1.493-.948-.09,2.906.993,2.928S2210.834,343.374,2210.834,343.374Z" transform="translate(-2206.24 -332.831)" fill="#fc7575"/>
        <path id="Path_194" data-name="Path 194" d="M2211.8,345.338s.037-.971-.49-.65,0,1.882.49,1.851S2211.8,345.338,2211.8,345.338Z" transform="translate(-2207.763 -334.673)" fill="#fd5e5a"/>
        <path id="Path_195" data-name="Path 195" d="M2237.184,345.8a6.08,6.08,0,0,1,.394,1.384,3.612,3.612,0,0,1-.015,1.533c-.12-.022-.438-.069-.859-.18.271-.008.541,0,.808.014l-.09.067A18.646,18.646,0,0,0,2237.184,345.8Z" transform="translate(-2227.577 -335.58)" fill="#172866"/>
        <path id="Path_196" data-name="Path 196" d="M2230.266,345.341a.486.486,0,0,1-.284.605c-.213.043-.433-.158-.49-.449a.486.486,0,0,1,.283-.605C2229.989,344.849,2230.208,345.05,2230.266,345.341Z" transform="translate(-2221.987 -334.876)" fill="#2f499f"/>
        <path id="Path_197" data-name="Path 197" d="M2243.26,343.5a.487.487,0,0,1-.284.605c-.214.043-.433-.158-.491-.449a.487.487,0,0,1,.284-.605C2242.983,343,2243.2,343.2,2243.26,343.5Z" transform="translate(-2232.039 -333.449)" fill="#2f499f"/>
        <path id="Path_198" data-name="Path 198" d="M2225.568,340.323a2.09,2.09,0,0,1,1.2-.945c.753-.152.526.481.35.516S2225.539,340.174,2225.568,340.323Z" transform="translate(-2218.961 -330.596)" fill="#172866"/>
        <path id="Path_199" data-name="Path 199" d="M2241.025,337.841s.892.264,1.06.673c0,0-.944-.078-1.114-.3A.251.251,0,0,1,2241.025,337.841Z" transform="translate(-2230.83 -329.426)" fill="#172866"/>
      </g>
      <path id="Path_200" data-name="Path 200" d="M2227.477,363.74a4.624,4.624,0,0,0,3.04.912C2229.741,365.377,2228.135,364.547,2227.477,363.74Z" transform="translate(-2220.438 -349.463)" fill="#fff"/>
    </g>
    <path id="Path_201" data-name="Path 201" d="M2197.657,556.318l16.86.3-.082,2.672-17.028-.544Z" transform="translate(-103.286 -255.598)" fill="#2d2828"/>
    <path id="Path_202" data-name="Path 202" d="M2237.476,559.685l-3.979-.062.094-2.508,3.979.084Z" transform="translate(-131.208 -256.214)" fill="#6b7296"/>
    <path id="Path_203" data-name="Path 203" d="M2239.421,558.394c.079,0,2.493.1,2.493.1l-.237,2.006-.02-1.783Z" transform="translate(-135.791 -257.204)" fill="#9095b0"/>
    <path id="Path_204" data-name="Path 204" d="M2218.177,397.81l2.455,1.153h1.956l1.476-1.153-1.32-2.319h-2.909l-.737-.364Z" transform="translate(-119.355 -130.887)" fill="#81669b"/>
    <path id="Path_205" data-name="Path 205" d="M2225.5,396.736h2.909l-.155,3.472H2226.3Z" transform="translate(-125.02 -132.132)" fill="#c13665"/>
    <path id="Path_206" data-name="Path 206" d="M2206.328,388.415l2.29-3.472-4.276-3.45-1.629,2.4Z" transform="translate(-107.39 -120.339)" fill="#decfed"/>
    <path id="Path_207" data-name="Path 207" d="M2238.831,389.958l-1.725-3.221.7-2.925,2.508,1.824Z" transform="translate(-134 -122.133)" fill="#decfed"/>
    <path id="Path_208" data-name="Path 208" d="M2229.024,412.079c0,1.372.1,29.439.1,29.439l3.329,4.028,1.9-4.241-3.38-29.225Z" transform="translate(-127.747 -144.003)" fill="#cf3a6c"/>
    <path id="Path_209" data-name="Path 209" d="M2229.023,412.079l.1,29.439,3.329,4.028-2.528-4.235Z" transform="translate(-127.746 -144.003)" fill="#a62e56"/>
    <path id="Path_210" data-name="Path 210" d="M2147.045,242.244c-.248-.282-1.1-.207-1.51.423s-.158.826-.15,1.659c.018,1.77-1.542,1.051-1.542,1.051l-1.519.075-.589.627-.742,3.617c.262.42.805,1.625,1.353,1.848.779.317,2.749.392,3.056-.439.236-.639.729-.677,1-.975.957-1.057,1.1-3.315.893-4.455s-.549-1.437-.456-1.974S2147.315,242.552,2147.045,242.244Z" transform="translate(-59.639 -12.484)" fill="#fc7575"/>
    <path id="Path_211" data-name="Path 211" d="M2160.092,261.611s.125.572.722.073c.182-.152.636-2.112.367-2.158s-1.125.7-1.125.7Z" transform="translate(-74.388 -25.974)" fill="#ea5757"/>
    <path id="Path_212" data-name="Path 212" d="M2158.123,264.984s-.078,1.117.09,1.315.489.233.7-.262a3.492,3.492,0,0,0-.053-1.853A.948.948,0,0,0,2158.123,264.984Z" transform="translate(-72.878 -29.58)" fill="#ea5757"/>
    <path id="Path_213" data-name="Path 213" d="M2155.489,270.044s-.7.822-.535,1.012,1.066.315,1.311-.041C2156.547,270.606,2156.153,270.286,2155.489,270.044Z" transform="translate(-70.422 -34.113)" fill="#ea5757"/>
    <path id="Path_214" data-name="Path 214" d="M2152.948,274.333a.151.151,0,0,1,.144.109c.034.171.029.513-.481.684a3.922,3.922,0,0,1-1.078.112l.545-1.068A3.616,3.616,0,0,0,2152.948,274.333Z" transform="translate(-67.794 -37.306)" fill="#ea5757"/>
    <path id="Path_215" data-name="Path 215" d="M2143.4,257.692c-.168.1-.762.328-.805.579a1.7,1.7,0,0,0,.225.744s3.018,1.059,3.287,1.105,1.179-.629.685-1.023A27.294,27.294,0,0,0,2143.4,257.692Z" transform="translate(-60.873 -24.557)" fill="#fc8b8b"/>
    <path id="Path_216" data-name="Path 216" d="M2140.126,262.973c-.286.092-.537.63-.583.9a2.257,2.257,0,0,0,.276.885,13.565,13.565,0,0,0,3.053.854c.594-.087.87-.853.709-1.044S2140.56,262.834,2140.126,262.973Z" transform="translate(-58.514 -28.636)" fill="#fc8b8b"/>
    <path id="Path_217" data-name="Path 217" d="M2139.1,270.764c-.354.094-.573.194-.462.574a1.072,1.072,0,0,0,.7.8c.318.055,1.911.421,2.2.441s1.276-.764.628-1.054S2139.833,270.569,2139.1,270.764Z" transform="translate(-57.793 -34.643)" fill="#fc8b8b"/>
    <path id="Path_218" data-name="Path 218" d="M2146.167,254.944s.656-.737,1.146-.8a9.5,9.5,0,0,1,3.141,1.221c.22.261-.682.657-1.112.668S2146.835,254.719,2146.167,254.944Z" transform="translate(-63.642 -21.809)" fill="#fc8b8b"/>
    <g id="Group_1532" data-name="Group 1532" transform="translate(2078.116 229.384)">
      <path id="Path_219" data-name="Path 219" d="M2127.3,247.883a.22.22,0,0,1-.208-.147,5.147,5.147,0,0,1,.082-4.2,5.308,5.308,0,0,1,3.056-2.41.22.22,0,0,1,.116.424,4.952,4.952,0,0,0-2.785,2.194,4.733,4.733,0,0,0-.053,3.849.22.22,0,0,1-.135.28A.222.222,0,0,1,2127.3,247.883Z" transform="translate(-2126.688 -241.117)" fill="#4dc0b1"/>
    </g>
    <g id="Group_1533" data-name="Group 1533" transform="translate(2131.848 229.384)">
      <path id="Path_220" data-name="Path 220" d="M2366.359,246.684a.219.219,0,0,1-.2-.138l-2.038-5.128a.22.22,0,0,1,.409-.162l2.037,5.128a.22.22,0,0,1-.2.3Z" transform="translate(-2364.102 -241.116)" fill="#4dc0b1"/>
    </g>
    <g id="Group_1534" data-name="Group 1534" transform="translate(2137.077 225.952)">
      <path id="Path_221" data-name="Path 221" d="M2387.425,234.952a.22.22,0,0,1-.212-.278l2.357-8.561a.22.22,0,1,1,.423.117l-2.357,8.56A.219.219,0,0,1,2387.425,234.952Z" transform="translate(-2387.205 -225.952)" fill="#4dc0b1"/>
    </g>
    <g id="Group_1535" data-name="Group 1535" transform="translate(2138.255 234.003)">
      <path id="Path_222" data-name="Path 222" d="M2392.632,265.513a.22.22,0,0,1-.09-.42l7.913-3.548a.22.22,0,0,1,.18.4l-7.913,3.547A.218.218,0,0,1,2392.632,265.513Z" transform="translate(-2392.412 -261.526)" fill="#4dc0b1"/>
    </g>
    <g id="Group_1536" data-name="Group 1536" transform="translate(2139.434 242.195)">
      <path id="Path_223" data-name="Path 223" d="M2404.573,300.7a.22.22,0,0,1-.077-.014l-6.734-2.537a.22.22,0,0,1,.155-.411l6.734,2.537a.22.22,0,0,1-.077.425Z" transform="translate(-2397.619 -297.721)" fill="#4dc0b1"/>
    </g>
    <g id="Group_1537" data-name="Group 1537" transform="translate(2124.932 240.075)">
      <path id="Path_224" data-name="Path 224" d="M2333.765,289.371a.22.22,0,0,1-.025-.438l4.979-.577a.22.22,0,0,1,.051.436l-4.979.577Z" transform="translate(-2333.545 -288.354)" fill="#4dc0b1"/>
    </g>
    <g id="Group_1538" data-name="Group 1538" transform="translate(2126.836 233.33)">
      <path id="Path_225" data-name="Path 225" d="M2345.99,261.356a.219.219,0,0,1-.115-.033l-3.813-2.365a.22.22,0,0,1,.231-.373l3.813,2.364a.22.22,0,0,1-.116.406Z" transform="translate(-2341.958 -258.552)" fill="#4dc0b1"/>
    </g>
    <g id="Group_1539" data-name="Group 1539" transform="translate(2172.341 266.753)">
      <path id="Path_226" data-name="Path 226" d="M2551.7,420.373a.22.22,0,0,1-.22-.22c0-5.029-8.315-13.461-8.4-13.545a.22.22,0,0,1,.312-.31c.348.351,8.527,8.647,8.527,13.855A.22.22,0,0,1,2551.7,420.373Z" transform="translate(-2543.02 -406.233)" fill="#4dc0b1"/>
    </g>
  </g>
</svg>
